<svg id="eSXUTLWotKI1" xmlns="http://www.w3.org/2000/svg" xmlns:xlink="http://www.w3.org/1999/xlink" viewBox="0 0 24 24" shape-rendering="geometricPrecision" text-rendering="geometricPrecision"><defs><linearGradient id="eSXUTLWotKI5-fill" x1="0.5" y1="0" x2="0.5" y2="1" spreadMethod="pad" gradientUnits="objectBoundingBox" gradientTransform="translate(0 0)"><stop id="eSXUTLWotKI5-fill-0" offset="0%" stop-color="rgba(255,255,255,0)"></stop><stop id="eSXUTLWotKI5-fill-1" offset="100%" stop-color="#010022"></stop></linearGradient></defs><path d="M9.5,12.5c-2.76142,0-5-2.2386-5-5s2.23858-5,5-5s5,2.23858,5,5-2.2386,5-5,5Z" fill="none" stroke="#fff" stroke-width="2" stroke-linecap="round" stroke-linejoin="round"></path><path d="M2.5,19.5c0-3.866,3.13401-7,7-7c1.0736,0,2.0907.2417,3,.6736" fill="none" stroke="#fff" stroke-width="2" stroke-linecap="round" stroke-linejoin="round"></path><path id="eSXUTLWotKI4" d="M21.5,17v-2.5c-2,0-3.5-1-3.5-1s-1.5,1-3.5,1v2.5c0,3.5,3.5,4.5,3.5,4.5s3.5-1,3.5-4.5Z" transform="matrix(0.882881 0 0 0.811337 2.318428 4.801603)" fill="none" stroke="#fff" stroke-width="2" stroke-linecap="round" stroke-linejoin="round"></path><rect id="eSXUTLWotKI5" style="mix-blend-mode:multiply" width="24" height="12" rx="0" ry="0" transform="matrix(1 0 0 1 0 12)" opacity="0.8" fill="url(#eSXUTLWotKI5-fill)" stroke-width="0"></rect>

</svg>